<svg version="1.2" xmlns="http://www.w3.org/2000/svg" viewBox="0 0 138 46" width="138" height="46">
	<title>download-svg</title>
	<style>
		.s0 { fill: #26d9d9 } 
		.s1 { fill: #000000 } 
	</style>
	<path id="Layer" fill-rule="evenodd" class="s0" d="m1.6 5q0-0.8 0.1-1.4 0.2-0.6 0.7-1 0.5-0.3 1.6-0.3h4.2q0.9 0 2.2 0.1 1.4 0 3 0.2 1.6 0.2 3.2 0.6 1.6 0.4 2.9 0.9 1.3 0.6 2.1 1.4 0.8 0.8 0.8 1.9 0 1.6-0.9 3-0.9 1.4-2.3 2.5-1.4 1.1-2.9 2-1.6 0.8-2.8 1.5 4.8 1.1 7.5 4.4 2.8 3.4 2.8 8.4 0 2.6-1.1 5.2-1 2.5-2.7 4.6-1.8 2.1-4.1 3.4-2.4 1.2-5.2 1.2-0.3 0-0.8-0.1-0.5 0-0.8-0.2-0.4-0.2-0.7-0.5-0.2-0.3-0.2-0.8 0-2.3 2.4-2.3 0.4 0 1 0.2 0.5 0.1 0.8 0.4 1.5-0.6 2.6-1.9 1.2-1.2 2-2.8 0.9-1.6 1.3-3.4 0.5-1.7 0.5-3.1 0-1.8-0.5-3.5-0.5-1.8-1.5-3.3-1-1.5-2.4-2.6-1.4-1-3.2-1.3-0.4 0-1 0l-1.1-0.1q0 0-1.1-0.1-0.8-0.2-0.9-0.3 0.2 4.2 0.5 8.4 0.3 4.3 0.9 8.6 0.2 0.2 0.3 0.6 0.1 0.4 0.1 0.8 0.1 0.5 0.1 0.9v0.7q0 0.5-0.4 0.8-0.3 0.3-0.7 0.4-0.4 0.2-0.9 0.3-0.5 0-0.8 0-1.2 0-1.8-0.3-0.6-0.3-0.9-0.9-0.3-0.6-0.3-1.3-0.1-0.8-0.2-1.7-0.7-7.2-1-14.3-0.3-7.1-0.3-14.3 0-0.8-0.1-1.6zm5.5 12.9q0-0.1 0-0.2-0.1 0.1 0 0.2zm-0.7-14q0 3.2 0.2 6.4 0.2 3.1 0.4 6.3 1.2-0.7 3-1.6 1.9-1 3.7-2.1 1.8-1.1 3-2.5 1.3-1.4 1.3-3 0-1.3-1.5-1.9-1.5-0.7-3.5-1-2-0.3-3.9-0.4-1.9-0.1-2.7-0.2zm22.6 27.9q0-1.7 0.5-3.3 0.5-1.7 1.4-3 1-1.2 2.4-2 1.5-0.8 3.4-0.8 1.1 0 2.5 0.4 1.4 0.3 2.7 1 1.2 0.7 2.1 1.8 0.8 1 0.8 2.4 0 0.6-0.2 1-0.3 0.3-0.9 0.3h-0.3q0.7 2 1.3 4.1 0.5 2.1 1 4.3 0.3 0.4 0.4 0.7 0.1 0.3 0.1 0.6 0 0.4-0.3 0.7-0.2 0.3-0.6 0.4-0.4 0.1-0.8 0.2-0.4 0-0.7 0-1.1 0-1.6-0.3-0.6-0.4-0.8-1.1-0.3-0.7-0.3-1.5-0.1-0.9-0.2-1.7-0.4 1-0.9 2-0.5 0.9-1.2 1.7-0.6 0.7-1.6 1.2-0.9 0.4-2.1 0.4-1.7 0-2.8-0.9-1.2-1-1.9-2.5-0.7-1.4-1-3-0.4-1.7-0.4-3.1zm3.7-0.3q0 0.9 0.1 2 0.2 1.1 0.5 2.1 0.3 1 0.7 2 0.5 0.9 1.2 1.6 1.3-1.4 1.9-3.4 0.6-1.9 1-3.8 0.5-1.8 1.1-3.1 0.6-1.3 1.9-1.3 0.8 0 1.4 0.3-0.3-0.7-0.9-1.3-0.6-0.6-1.3-1.1-0.8-0.5-1.6-0.8-0.7-0.3-1.4-0.3-0.2 0-0.5 0-0.3 0.1-0.4 0-1.1 0.4-1.8 1.1-0.7 0.8-1.1 1.8-0.4 1.1-0.6 2.1-0.2 1.1-0.2 2.1zm18.8 0.5v-0.8q0-0.9 0-1.7 0.1-1.2 0.1-1.9 0-0.5 0-1 0.1-0.5 0.3-0.8 0.3-0.3 0.6-0.6 0.4-0.2 0.8-0.2 1.3 0 2 0.3 0.8 0.3 0.8 1.2l0.1 0.8q0.5-1.1 1.3-2.8 0.8-1.6 1.8-3.1 1-1.5 2.3-2.5 1.3-1.1 2.7-1.1 1.3 0 2.2 1.3 0.8 1.2 1.3 3.1 0.5 2 0.7 4.3 0.2 2.4 0.3 4.7 0.1 2.3 0.1 4.1 0.1 1.9 0.2 2.9 0.1 0.8 0.4 1.7 0.2 0.8 0.2 1.6 0 0.2-0.3 0.4-0.3 0.2-0.6 0.3-0.4 0.2-0.7 0.2-0.4 0.1-0.5 0.1-1 0-1.5-1.5-0.4-1.5-0.5-3.8-0.1-2.3-0.1-4.9 0-2.7-0.2-5-0.2-2.2-0.7-3.7-0.6-1.6-1.8-1.6-1.1 0-2.3 1.4-1.2 1.5-2 3.8-0.9 2.4-1.2 5.4-0.1 1-0.1 2 0 2.1 0.5 4.2 0 0.3-0.3 0.5-0.4 0.2-0.9 0.3-0.5 0.1-1 0.1-0.6 0-0.9 0-1 0-1.6-0.7-0.6-0.7-0.9-1.8-0.4-1.1-0.5-2.5-0.1-1.4-0.1-2.7zm23.5 10.4l0.5-0.7q-0.1-4.3-0.2-8.7-0.1-4.3-0.1-8.6 0-5.3 0.6-10.2 0.6-5 1.3-10.2 0-0.3 0.3-0.5 0.2-0.2 0.6-0.3 0.3-0.1 0.7-0.2 0.4 0 0.7 0 0.4 0 1 0.1 0.7 0.2 1.3 0.9 0 0.3 0 0.5 0.1 0.2 0.1 0.4 0 2-0.6 4.3-0.5 2.2-0.7 4.3-0.2 2.5-0.3 5-0.1 2.5-0.1 5l0.1 2.3q0.5-0.6 1.5-1.6 0.9-1 2-2 1.2-0.9 2.3-1.6 1.1-0.7 2-0.7 1.4 0 1.9 0.8 0.5 0.8 0.5 2 0 1.2-0.5 2.5-0.5 1.2-1.3 2.4-0.8 1.2-1.9 2.2-1 1-2 1.4 1.4 1.7 2.8 3.3 1.4 1.5 3.2 2.9v0.6q-0.1 0.3-0.4 0.4-0.2 0.1-0.6 0.2-0.3 0.1-0.6 0.1-0.3 0.1-0.5 0.1-1.3 0-2.5-0.8-1.1-0.7-2.2-1.8-1-1.1-1.9-2.3-0.9-1.3-1.6-2.2 0.1 3 0.3 6 0.2 2.9 0.2 5.9 0 0.4-0.3 0.6-0.3 0.3-0.8 0.4-0.4 0.1-0.8 0.2-0.5 0-0.8 0-1.5 0-2.1-0.5-0.7-0.6-1.1-1.9zm5.3-12.2q0.6 0 1.5-0.6 0.9-0.5 1.9-1.4 1-0.8 1.8-1.7 0.8-0.9 1.3-1.8 0.5-0.8 0.5-1.3 0-0.5-0.7-0.5-0.2 0-1 0.8-0.8 0.7-1.8 1.8-1 1.1-2 2.4-1 1.3-1.5 2.3zm15.7 1.6q0-1.7 0.4-3.3 0.5-1.7 1.5-3 0.9-1.2 2.4-2 1.4-0.8 3.3-0.8 1.1 0 2.6 0.4 1.4 0.3 2.6 1 1.3 0.7 2.1 1.8 0.8 1 0.8 2.4 0 0.6-0.2 1-0.2 0.3-0.9 0.3h-0.3q0.8 2 1.3 4.1 0.6 2.1 1.1 4.3 0.2 0.4 0.3 0.7 0.1 0.3 0.1 0.6 0 0.4-0.3 0.7-0.2 0.3-0.6 0.4-0.3 0.1-0.7 0.2-0.4 0-0.7 0-1.2 0-1.7-0.3-0.6-0.4-0.8-1.1-0.3-0.7-0.3-1.5-0.1-0.9-0.2-1.7-0.3 1-0.8 2-0.5 0.9-1.2 1.7-0.7 0.7-1.6 1.2-1 0.4-2.1 0.4-1.7 0-2.9-0.9-1.2-1-1.9-2.5-0.7-1.4-1-3-0.3-1.7-0.3-3.1zm3.6-0.3q0 0.9 0.2 2 0.1 1.1 0.4 2.1 0.3 1 0.7 2 0.5 0.9 1.2 1.6 1.3-1.4 1.9-3.4 0.6-1.9 1.1-3.8 0.5-1.8 1.1-3.1 0.6-1.3 1.8-1.3 0.8 0 1.4 0.3-0.3-0.7-0.9-1.3-0.6-0.6-1.3-1.1-0.7-0.5-1.5-0.8-0.8-0.3-1.5-0.3-0.2 0-0.5 0-0.3 0.1-0.4 0-1.1 0.4-1.8 1.1-0.7 0.8-1.1 1.8-0.4 1.1-0.6 2.1-0.2 1.1-0.2 2.1zm18.8 0.5v-0.8q0-0.9 0.1-1.7 0-1.2 0-1.9 0-0.5 0.1-1 0-0.5 0.2-0.8 0.3-0.3 0.6-0.6 0.4-0.2 0.8-0.2 1.3 0 2.1 0.3 0.7 0.3 0.8 1.2l0.1 0.8q0.4-1.1 1.2-2.8 0.8-1.6 1.8-3.1 1-1.5 2.3-2.5 1.3-1.1 2.7-1.1 1.3 0 2.2 1.3 0.8 1.2 1.3 3.1 0.6 2 0.8 4.3 0.2 2.4 0.2 4.7 0.1 2.3 0.1 4.1 0.1 1.9 0.2 2.9 0.1 0.8 0.4 1.7 0.2 0.8 0.2 1.6 0 0.2-0.3 0.4-0.3 0.2-0.6 0.3-0.3 0.2-0.7 0.2-0.3 0.1-0.5 0.1-1 0-1.4-1.5-0.5-1.5-0.6-3.8-0.1-2.3-0.1-4.9 0-2.7-0.1-5-0.2-2.2-0.8-3.7-0.5-1.6-1.8-1.6-1.1 0-2.3 1.4-1.2 1.5-2 3.8-0.8 2.4-1.1 5.4-0.1 1-0.1 2 0 2.1 0.4 4.2 0 0.3-0.3 0.5-0.4 0.2-0.9 0.3-0.5 0.1-1 0.1-0.6 0-0.8 0-1 0-1.7-0.7-0.6-0.7-0.9-1.8-0.3-1.1-0.5-2.5-0.1-1.4-0.1-2.7z"/>
	<path id="Layer" class="s1" d=""/>
</svg>